<?xml version="1.0" encoding="UTF-8"?>
<svg id="Vrstva_2" data-name="Vrstva 2" xmlns="http://www.w3.org/2000/svg" viewBox="0 0 54.33 55.17">
  <defs>
    <style>
      .cls-1 {
        fill: #fff;
        stroke-width: 0px;
      }
    </style>
  </defs>
  <g id="Vrstva_3" data-name="Vrstva 3">
    <g>
      <path class="cls-1" d="m12.04,6.12c-1.9,1.98-3.57,3.68-5.17,5.44-.16.17-.04.83.17,1.07.72.83,1.52,1.59,2.31,2.35.71.68.77,1.39.35,2.28-.69,1.49-1.33,3.02-1.88,4.57-.34.95-.9,1.36-1.87,1.35-1.1-.02-2.2.02-3.3,0-.66-.02-.93.27-.92.91.02,2.06.03,4.11,0,6.17,0,.74.33.95,1.01.93,1.1-.03,2.2.02,3.3-.01.96-.02,1.46.46,1.78,1.32.59,1.57,1.23,3.14,1.92,4.67.37.82.29,1.48-.33,2.1-.78.78-1.53,1.59-2.34,2.33-.55.51-.61.93-.02,1.44.38.34.8.69,1.04,1.12.16.28.17.92,0,1.04-.27.2-.9.27-1.13.09-.68-.54-1.33-1.17-1.83-1.88-.6-.84-.46-1.76.25-2.52.72-.78,1.47-1.54,2.25-2.26.45-.42.51-.77.24-1.33-.56-1.15-1.07-2.34-1.49-3.55-.24-.69-.6-.9-1.28-.87-.92.05-1.83.03-2.75,0-1.53-.03-2.32-.8-2.34-2.31-.02-2.28-.03-4.55,0-6.83.02-1.5.75-2.22,2.24-2.26.99-.03,1.98-.04,2.97,0,.61.03.91-.2,1.13-.78.47-1.27,1.06-2.5,1.52-3.77.11-.32.04-.85-.17-1.1-.66-.78-1.44-1.46-2.14-2.21-1.03-1.1-1.03-2.22.03-3.3,1.54-1.57,3.1-3.13,4.68-4.66,1.23-1.2,2.28-1.18,3.53.05.47.46,1.01.87,1.4,1.4.71.98,1.44,1.09,2.49.47.84-.5,1.8-.82,2.74-1.12.75-.23,1.09-.6,1.04-1.41-.06-.95-.04-1.91,0-2.86.07-1.42.8-2.15,2.24-2.17,2.35-.03,4.7-.03,7.05.01,1.3.02,2.03.78,2.09,2.07.04,1.03.04,2.06,0,3.08-.02.65.2.97.85,1.19,1.18.4,2.34.86,3.45,1.43.7.36,1.12.24,1.61-.3.61-.68,1.27-1.32,1.94-1.95,1.07-1,2.18-1.03,3.21-.03,1.69,1.63,3.35,3.3,4.98,4.98.9.93.9,1.97.02,2.95-.73.82-1.58,1.54-2.29,2.38-.21.25-.28.79-.16,1.11.46,1.27,1.06,2.5,1.52,3.77.21.6.52.79,1.12.77.99-.03,1.98-.02,2.97,0,1.41.03,2.22.76,2.25,2.16.04,2.35.03,4.7-.01,7.05-.02,1.34-.79,2.11-2.14,2.18-1.02.05-2.06.04-3.08.01-.6-.02-.91.18-1.13.78-.43,1.21-.91,2.4-1.48,3.55-.32.65-.22,1.06.3,1.52.73.66,1.43,1.38,2.1,2.11.89.96.9,1.98.05,2.96-.43.5-.88,1.02-1.42,1.37-.31.21-.83.11-1.26.15,0-.43-.12-.94.06-1.27.36-.68,1.32-1.31,1.26-1.87-.07-.64-.96-1.21-1.54-1.77-2.49-2.39-1.87-2.21-.78-4.56.49-1.06.89-2.17,1.24-3.29.3-.93.83-1.41,1.83-1.38,1.1.03,2.2-.03,3.3.02.73.03.97-.28.96-.97-.02-2.02-.04-4.04,0-6.06.02-.8-.32-1.02-1.05-.99-1.1.04-2.2,0-3.3,0-.9,0-1.39-.44-1.71-1.26-.6-1.57-1.21-3.14-1.92-4.67-.42-.91-.32-1.6.38-2.28.77-.74,1.48-1.53,2.27-2.25.59-.53.53-.92-.01-1.44-1.45-1.4-2.87-2.83-4.28-4.28-.45-.46-.79-.52-1.26-.02-.8.86-1.67,1.65-2.49,2.49-.6.62-1.24.65-2,.32-1.61-.7-3.24-1.37-4.87-2.01-.73-.29-1.14-.77-1.15-1.56,0-1.14-.03-2.28,0-3.41.01-.72-.23-1.09-1.01-1.08-2.02.03-4.04.02-6.06,0-.71,0-.98.28-.95.99.04,1.1,0,2.2.02,3.3.02.94-.4,1.47-1.29,1.8-1.54.57-3.08,1.17-4.57,1.89-.95.46-1.67.37-2.36-.39-.88-.98-1.78-1.94-2.91-3.18Z"/>
      <path class="cls-1" d="m27.09,55.17c-5.1,0-10.2,0-15.31,0-1.22,0-1.43-.24-1.39-1.41.23-6.95,4.78-13.09,11.33-15.31.24-.08.51-.25.73-.2.44.1.85.32,1.27.49-.26.37-.44.9-.8,1.09-.93.5-1.99.76-2.92,1.27-4.44,2.45-6.97,6.26-7.81,11.24-.16.92.18,1.14,1.04,1.13,6.35-.03,12.7-.01,19.05-.01,2.79,0,5.58,0,8.37,0,1.59,0,1.65-.03,1.34-1.62-1.14-5.76-4.47-9.68-9.97-11.76-.67-.25-1.8-.3-1.36-1.4.4-1.01,1.33-.44,2.01-.19,6.63,2.47,11.02,8.39,11.21,15.05.04,1.5-.1,1.65-1.6,1.65-5.07,0-10.13,0-15.2,0h0Z"/>
      <path class="cls-1" d="m9.82,27.92c-.23-8.35,5.31-15.6,13.03-17.58,7.75-1.99,16.09,1.72,19.67,8.77.48.94.85,1.95,1.23,2.94.23.61.35,1.31-.48,1.54-.78.22-.99-.44-1.17-1.01-1.5-4.7-4.55-8.01-9.08-9.88-6.45-2.66-13.79-.69-18.07,4.71-4.36,5.5-4.55,13.07-.47,18.87.08.12.17.24.26.35.39.5.69,1.06.03,1.51-.66.45-1.07-.05-1.45-.54-2.28-3.03-3.43-6.45-3.5-9.7Z"/>
      <path class="cls-1" d="m34.44,29.02c-.01,4.01-3.27,7.26-7.3,7.27-3.97.02-7.28-3.29-7.29-7.3-.01-4,3.26-7.31,7.26-7.33,4.05-.03,7.34,3.27,7.33,7.36Zm-7.33,5.53c3.06.02,5.63-2.5,5.65-5.54.02-3.05-2.52-5.58-5.61-5.59-3.03,0-5.56,2.48-5.58,5.48-.02,3.1,2.44,5.62,5.53,5.65Z"/>
      <path class="cls-1" d="m42.74,26.92c0-.44-.09-.9.03-1.3.09-.32.45-.79.67-.78.33.02.89.37.92.63.12.97.12,1.96.03,2.94-.02.28-.55.76-.75.71-.33-.07-.72-.45-.83-.78-.14-.43-.03-.94-.03-1.41,0,0-.02,0-.03,0Z"/>
      <path class="cls-1" d="m44.12,31.12c-.39,1.07-.67,2.02-1.11,2.9-.13.26-.8.5-1.05.38-.26-.12-.49-.73-.42-1.05.18-.85.47-1.7.85-2.48.14-.29.68-.55,1.01-.53.26.02.48.51.71.78Z"/>
      <path class="cls-1" d="m42.01,36.26c-.61.71-1.14,1.39-1.75,1.98-.12.12-.68-.02-.85-.2-.18-.19-.26-.66-.15-.88.31-.57.7-1.12,1.15-1.58.17-.18.63-.23.88-.14.25.09.4.44.71.82Z"/>
    </g>
  </g>
</svg>