<?xml version="1.0" encoding="UTF-8"?>
<svg id="Vrstva_2" data-name="Vrstva 2" xmlns="http://www.w3.org/2000/svg" viewBox="0 0 52.41 56.91">
  <defs>
    <style>
      .cls-1 {
        fill: #333;
        stroke-width: 0px;
      }
    </style>
  </defs>
  <g id="Vrstva_3" data-name="Vrstva 3">
    <g>
      <path class="cls-1" d="m40.78,53.75c-1.62,0-3.23.05-4.85-.01-3.36-.13-6.4.74-9.09,2.75-.74.55-1.34.55-2.07,0-2.72-2.04-5.8-2.85-9.2-2.76-3.52.09-7.05.02-10.57.02-1.43,0-1.58-.16-1.59-1.58,0-1.25-.02-2.5,0-3.74.01-.58-.12-.9-.74-1.13C.93,46.64-.07,45.29,0,43.66c.08-1.79.97-3.07,2.7-3.63.65-.21.72-.6.72-1.16-.01-2.39,0-4.77,0-7.16,0-1.4.16-1.56,1.6-1.58,1.32-.02,2.64-.02,3.96.01.63.01.92-.16.94-.86.18-5.1,3.9-10.42,12-10.19.38.01,1,.45,1.07.78.15.69-.46.88-1.07.92-.99.07-1.98.1-2.96.26-3.85.62-6.82,3.74-7.24,7.55-.16,1.44-.09,1.51,1.32,1.51,1.06,0,2.13.02,3.19,0,3.22-.06,6.17.79,8.84,2.58.47.32.84.45,1.37.08,2.84-2,6.03-2.76,9.47-2.67,1.5.04,3.01-.05,4.51.03,1.04.05,1.22-.37,1.14-1.29-.34-3.86-3.34-7.12-7.27-7.78-.9-.15-1.84-.09-2.73-.29-.38-.09-.67-.58-1-.9.34-.26.68-.74,1.02-.75,7.16-.2,11.31,4.43,11.68,9.9.06.96.43,1.18,1.28,1.13.99-.06,1.98-.02,2.97,0,1.34.02,1.49.18,1.5,1.56.01,2.35.03,4.7,0,7.05-.01.72.18,1.11.91,1.37,1.58.56,2.46,1.92,2.47,3.55,0,1.61-.89,2.99-2.47,3.55-.73.26-.95.63-.91,1.36.06,1.25,0,2.5.02,3.74.02,1-.37,1.47-1.44,1.45-2.28-.05-4.55-.01-6.83-.01h0Zm-14,.57c.32-.14.52-.21.7-.31,2.52-1.44,5.23-2.03,8.13-1.99,3.52.05,7.04,0,10.57.03.85,0,1.15-.24,1.14-1.12-.03-5.98-.03-11.96,0-17.94,0-.83-.2-1.16-1.1-1.15-3.89.05-7.78.02-11.67.06-2.53.02-4.81.85-6.94,2.19-.67.42-.91.91-.91,1.7.03,5.8,0,11.59,0,17.39,0,.35.05.7.08,1.16Zm-1.99.11c.07-.47.13-.65.13-.83,0-6.05.03-12.1-.02-18.15,0-.41-.36-.95-.72-1.21-1.82-1.31-3.86-2.19-6.11-2.26-4.03-.12-8.06-.09-12.1-.13-.62,0-.86.25-.86.85,0,6.16,0,12.32,0,18.48,0,.59.22.9.84.86.22-.02.44,0,.66,0,1.58,0,3.15,0,4.73,0,4.56.03,9.22-.54,13.44,2.4ZM3.31,45.58v-3.9c-1.08.35-1.56,1.04-1.55,1.97,0,.91.4,1.67,1.55,1.93Zm45.87-3.87v3.87c1.09-.31,1.5-1.02,1.5-1.93,0-.9-.41-1.61-1.5-1.95Z"/>
      <path class="cls-1" d="m34.39,7.85c-.02,4.3-3.51,7.76-7.79,7.74-4.32-.02-7.8-3.57-7.75-7.91C18.89,3.4,22.42-.05,26.71,0c4.31.05,7.7,3.52,7.68,7.85Zm-13.82,0c.02,3.3,2.76,6.01,6.06,6,3.35-.01,6.11-2.8,6.07-6.12-.04-3.29-2.79-5.99-6.09-6-3.36,0-6.07,2.74-6.05,6.13Z"/>
      <path class="cls-1" d="m13.94,37.74c-1.43,0-2.86,0-4.29,0-.61,0-1.27-.02-1.3-.83-.03-.8.6-.9,1.23-.9,2.97,0,5.95,0,8.92,0,.61,0,1.17.13,1.19.84.03.8-.59.9-1.23.9-1.5,0-3.01,0-4.51,0Z"/>
      <path class="cls-1" d="m13.93,42.9c-1.47,0-2.94,0-4.4,0-.6,0-1.17-.12-1.19-.83-.02-.81.61-.87,1.24-.87,2.94,0,5.87,0,8.81,0,.62,0,1.29.03,1.3.82.01.86-.7.89-1.35.89-1.47,0-2.94,0-4.4,0,0,0,0,0,0,0Z"/>
    </g>
  </g>
</svg>