<?xml version="1.0" encoding="UTF-8"?>
<svg id="Vrstva_2" data-name="Vrstva 2" xmlns="http://www.w3.org/2000/svg" viewBox="0 0 53.37 52.14">
  <defs>
    <style>
      .cls-1 {
        fill: #74c7d3;
        stroke-width: 0px;
      }
    </style>
  </defs>
  <g id="Vrstva_3" data-name="Vrstva 3">
    <g>
      <path class="cls-1" d="m30.24,38.79c0,2.63-.02,5.27.04,7.9,0,.25.51.67.8.69,1.32.08,2.64.02,3.96.04,1.67.02,2.57.86,2.58,2.34,0,1.47-.9,2.36-2.55,2.36-8.51.02-17.03.02-25.54.01-1.65,0-2.57-.87-2.58-2.35-.01-1.47.9-2.32,2.56-2.36,1.32-.03,2.64-.03,3.96,0,.6,0,.86-.21.86-.83-.02-3.89.03-7.78-.06-11.67-.02-.68-.49-1.47-.99-1.99-3.86-4.07-7.78-8.09-11.68-12.13-.31-.32-.61-.64-.87-.99-1.1-1.47-.96-3.11.34-4.23,1.23-1.05,2.95-.99,4.18.24,2.28,2.29,4.55,4.58,6.78,6.92,3.42,3.6,3.4,3.62,8.38,3.62,1.94,0,3.89,0,5.83,0,2.35,0,4.2.99,5.48,2.94,2.48,3.77,4.92,7.56,7.35,11.37,1.04,1.63.66,3.54-.8,4.47-1.55.99-3.4.54-4.47-1.13-1.12-1.75-2.2-3.53-3.3-5.3-.09.03-.17.06-.26.09Zm-14.17,1.8c0,1.91.04,3.82-.02,5.72-.03.9.3,1.12,1.15,1.11,3.26-.04,6.53-.01,9.8-.02,1.52,0,1.53,0,1.53-1.58,0-3.38-.02-6.75.03-10.13,0-.44.36-.87.55-1.3.43.26.96.44,1.25.8.53.65.91,1.42,1.35,2.14,1.19,1.94,2.38,3.88,3.59,5.8.48.76,1.2.99,1.99.52.78-.47.76-1.2.41-1.93-.17-.36-.42-.69-.64-1.03-2.15-3.33-4.32-6.64-6.44-9.99-1.12-1.77-2.63-2.67-4.74-2.64-2.64.04-5.28-.02-7.92.02-2.15.03-3.91-.75-5.39-2.3-2.61-2.73-5.27-5.42-7.91-8.12-1.12-1.15-1.83-1.35-2.5-.71-.67.64-.49,1.4.6,2.53,3.95,4.09,7.89,8.19,11.85,12.26.98,1,1.48,2.14,1.45,3.55-.04,1.76,0,3.52,0,5.28Zm6.34,8.55h0c-4.22,0-8.44,0-12.66.04-.35,0-.69.41-1.03.64.34.19.67.4,1.02.57.12.06.29.01.44.01,8.11,0,16.22,0,24.33,0,.29,0,.62.05.87-.06.22-.1.44-.38.47-.61.02-.16-.25-.45-.45-.51-.3-.1-.65-.06-.98-.06-4,0-8,0-12,0Z"/>
      <path class="cls-1" d="m40.72,26.46c-3.61.03-3.62.03-3.6-3.54,0-.72.18-1.44.26-2.16.15-1.4-.57-2.46-1.43-3.44-1.54-1.77-2.2-3.78-1.68-6.11.62-2.77,2.81-4.78,5.61-5.19,2.67-.39,5.38.97,6.75,3.39,1.35,2.38,1.09,5.33-.67,7.52-.43.54-.89,1.08-1.23,1.67-.48.84-.6,1.69-.4,2.73.25,1.23.14,2.55.08,3.83-.03.8-.61,1.24-1.4,1.28-.77.04-1.54,0-2.31,0Zm.09-6.26c.54-.21,1.3.45,1.74-.58.54-1.29,1.21-2.58,2.07-3.68,1.88-2.43,1.37-5.92-1.22-7.49-2.02-1.22-4.55-.89-6.15.8-1.71,1.81-1.86,4.33-.45,6.35.73,1.04,1.6,2.07,2,3.24.38,1.13.82,1.64,2.01,1.36Zm-.04,4.54c2.02,0,2,0,1.97-1.96,0-.55-.16-.82-.74-.8-.8.03-1.61-.02-2.41.03-.24.01-.59.18-.67.37-.59,1.4.05,2.36,1.52,2.36.11,0,.22,0,.33,0Z"/>
      <path class="cls-1" d="m28.38,19.21c-.03,3.37-2.75,6.08-6.11,6.09-3.32,0-6.07-2.78-6.07-6.13,0-3.33,2.78-6.09,6.12-6.08,3.34.01,6.09,2.79,6.06,6.13Zm-1.74,0c0-2.42-1.91-4.38-4.29-4.41-2.44-.03-4.41,1.94-4.4,4.4,0,2.4,1.94,4.33,4.34,4.34,2.39.01,4.34-1.93,4.35-4.34Z"/>
      <path class="cls-1" d="m30.67,13.42c-.55,0-1.12.09-1.64-.03-.31-.07-.79-.52-.76-.72.06-.34.45-.86.74-.88,1.12-.1,2.27-.08,3.39,0,.27.02.68.51.69.78,0,.28-.39.73-.68.8-.55.13-1.16.04-1.74.04,0,0,0,0,0,0Z"/>
      <path class="cls-1" d="m50.83,13.43c-.51,0-1.05.1-1.52-.03-.34-.1-.59-.52-.87-.8.28-.29.53-.79.83-.82,1.05-.1,2.12-.12,3.17,0,.34.03.62.55.94.85-.3.27-.56.69-.9.78-.51.13-1.09.03-1.64.03,0,0,0,0,0,0Z"/>
      <path class="cls-1" d="m37.6,5.22c-.33.35-.52.72-.76.76-.3.05-.8-.06-.94-.28-.63-.94-1.2-1.93-1.7-2.94-.12-.24.04-.74.24-.96.16-.17.77-.22.86-.09.8,1.12,1.52,2.29,2.3,3.51Z"/>
      <path class="cls-1" d="m44.82,6.22c-.19-.39-.64-.9-.53-1.15.5-1.12,1.14-2.19,1.81-3.22.12-.19.69-.25.96-.14.22.09.5.62.42.77-.62,1.18-1.32,2.32-2.01,3.47-.06.1-.26.11-.64.27Z"/>
      <path class="cls-1" d="m33.36,9.32c-1.16-.72-2.29-1.39-3.36-2.14-.16-.11-.18-.7-.04-.88.18-.23.69-.46.9-.35,1.08.53,2.13,1.14,3.13,1.8.2.13.26.68.18.97-.07.23-.46.37-.8.61Z"/>
      <path class="cls-1" d="m51.78,6.88c-.13.15-.31.48-.59.66-.8.51-1.6,1.04-2.47,1.4-.35.14-.88-.13-1.32-.22.15-.4.18-.97.47-1.18.79-.58,1.67-1.05,2.54-1.5.71-.36,1.35-.02,1.38.84Z"/>
      <path class="cls-1" d="m41.6,2.4c0,.58.09,1.18-.03,1.74-.06.3-.53.75-.73.71-.32-.07-.8-.46-.82-.75-.09-1.08-.09-2.19,0-3.27.03-.3.52-.56.79-.84.26.29.67.54.76.88.13.47.03,1.01.03,1.52,0,0,0,0,0,0Z"/>
    </g>
  </g>
</svg>