<?xml version="1.0" encoding="UTF-8"?>
<svg id="Vrstva_2" data-name="Vrstva 2" xmlns="http://www.w3.org/2000/svg" viewBox="0 0 58 49.4">
  <defs>
    <style>
      .cls-1 {
        fill: #74c7d3;
        stroke-width: 0px;
      }
    </style>
  </defs>
  <g id="Vrstva_3" data-name="Vrstva 3">
    <g>
      <path class="cls-1" d="m12.78,2c2.43.05,4.81.57,6.98,1.84.53.31.87.24,1.37-.07,4.55-2.82,9.31-3.06,14.2-.97.75.32,1.22.26,1.86-.22,5.11-3.79,13.06-3.35,17.73.94,3.18,2.92,3.7,7.14,1.38,10.78-.25.39-.32,1.04-.19,1.48.56,1.86,1.26,3.68,1.83,5.54.14.46-.02,1.01-.05,1.52-.53-.1-1.15-.05-1.59-.31-1.79-1.08-3.51-2.27-5.3-3.36-.42-.25-1.04-.41-1.5-.3-3.63.82-7.13.62-10.54-.95-.33-.15-.94-.08-1.26.13-5.07,3.42-10.3,3.6-15.74.95-.37-.18-1.02-.15-1.36.07-3.58,2.28-7.44,2.8-11.51,1.86-.91-.21-1.59-.08-2.34.44-1.66,1.14-3.36,2.23-5.09,3.28-.38.23-.92.18-1.39.25-.05-.5-.25-1.05-.11-1.5.58-1.89,1.29-3.75,1.88-5.64.12-.39.08-.96-.12-1.3C-.77,11.98.18,7.48,4.5,4.46c2.46-1.72,5.23-2.43,8.27-2.45ZM2.55,21.69c.08.06.16.12.25.18,1.23-.79,2.49-1.53,3.67-2.38.79-.57,1.53-.64,2.46-.38,3.59.99,7.06.68,10.31-1.22,4.92-2.87,5.27-8.41.77-11.87-3.84-2.96-10.5-3.03-14.52-.17-3.36,2.38-4.73,6.43-1.79,10.11.29.37.35,1.1.22,1.59-.37,1.4-.9,2.76-1.36,4.14Zm52.77-1.82c.08-.06.17-.12.25-.19-.45-1.34-.88-2.69-1.38-4.02-.26-.69-.21-1.21.24-1.83,2.5-3.39,1.96-7.07-1.35-9.65-4.21-3.27-11.01-3.28-15.21-.02-3.95,3.06-3.88,8.17.16,11.09,3.5,2.54,7.35,2.91,11.41,1.77.75-.21,1.32-.14,1.95.29,1.29.88,2.62,1.7,3.94,2.55Zm-18.75-3.26c-.78-.99-1.5-1.9-2.24-2.81-.45-.55-1.02-1.03-1.34-1.64-.29-.55-.58-1.33-.41-1.86.62-1.95,1.43-3.85,2.18-5.78-3.1-2.12-10.13-1.69-12.65.85.56.76,1.13,1.51,1.68,2.28.54.76,1.15,1.5,1.55,2.33.24.5.35,1.24.15,1.73-.78,1.94-1.69,3.82-2.57,5.73,3.36,2.47,10.56,2.06,13.64-.82Z"/>
      <path class="cls-1" d="m19.47,44.33c2.06-3.72,5.07-5.85,9.25-5.87,4.2-.02,7.21,2.09,9.31,5.84.32-.48.58-.86.82-1.24,2.36-3.6,6.72-5.36,10.83-4.35,4.27,1.05,7.38,4.62,7.78,8.95.02.25.12.56.01.76-.2.37-.52.66-.79.99-.29-.31-.73-.57-.84-.93-.3-.97-.32-2.04-.69-2.98-1.4-3.64-5.24-5.84-8.98-5.25-3.98.63-6.93,3.79-7.24,7.74-.03.36-.02.78-.2,1.05-.14.21-.7.42-.81.33-.32-.27-.68-.69-.71-1.07-.15-1.93-.79-3.63-2.02-5.13-2.13-2.59-5.66-3.64-8.96-2.62-3.2.98-5.61,3.99-5.86,7.29-.03.33.04.71-.11.97-.16.27-.52.58-.8.58-.27,0-.63-.32-.78-.6-.15-.26-.09-.64-.12-.97-.44-4.34-4.05-7.65-8.37-7.67-4.32-.02-7.94,3.28-8.41,7.62-.07.67.13,1.71-.99,1.59-1.06-.11-.78-1.09-.71-1.77.4-4.32,3.56-7.91,7.82-8.9,4.21-.99,8.67.9,10.93,4.61.18.3.37.6.64,1.03Z"/>
      <path class="cls-1" d="m33.63,32.8c-.02,2.65-2.2,4.83-4.85,4.83-2.7,0-4.9-2.21-4.88-4.91.02-2.69,2.26-4.87,4.96-4.82,2.64.04,4.78,2.24,4.76,4.91Zm-4.83-3.17c-1.75-.01-3.15,1.39-3.15,3.13,0,1.7,1.37,3.1,3.04,3.13,1.74.03,3.19-1.36,3.2-3.08.01-1.77-1.36-3.17-3.1-3.18Z"/>
      <path class="cls-1" d="m47.37,27.9c2.7,0,4.88,2.2,4.86,4.92-.02,2.63-2.21,4.78-4.88,4.81-2.66.02-4.89-2.23-4.87-4.93.02-2.63,2.22-4.79,4.88-4.8Zm.01,8c1.73-.03,3.14-1.46,3.12-3.19-.02-1.72-1.47-3.11-3.22-3.08-1.68.03-3.06,1.44-3.06,3.13,0,1.73,1.44,3.16,3.15,3.14Z"/>
      <path class="cls-1" d="m15.04,32.74c.03,2.63-2.13,4.84-4.79,4.89-2.69.05-4.91-2.13-4.94-4.85-.02-2.65,2.13-4.85,4.78-4.89,2.7-.04,4.91,2.13,4.94,4.85Zm-1.73-.01c-.01-1.73-1.45-3.12-3.2-3.1-1.66.02-3.06,1.43-3.09,3.11-.02,1.7,1.45,3.18,3.15,3.16,1.75-.02,3.15-1.43,3.14-3.17Z"/>
      <path class="cls-1" d="m7.83,13.11c-.88.02-1.63-.72-1.61-1.59.01-.84.71-1.53,1.55-1.55.84-.02,1.56.66,1.6,1.5.04.91-.63,1.63-1.54,1.65Z"/>
      <path class="cls-1" d="m17.55,13.12c-.86,0-1.57-.77-1.55-1.64.02-.82.72-1.49,1.57-1.51.86-.02,1.61.72,1.61,1.59,0,.85-.75,1.58-1.63,1.57Z"/>
      <path class="cls-1" d="m12.61,9.97c.9-.03,1.64.67,1.64,1.56,0,.9-.59,1.53-1.49,1.58-.92.04-1.63-.62-1.65-1.54-.02-.83.67-1.57,1.5-1.59Z"/>
      <path class="cls-1" d="m42.12,9.51c.02.87-.7,1.61-1.59,1.61-.83,0-1.54-.67-1.59-1.5-.04-.86.68-1.65,1.53-1.68.86-.03,1.62.7,1.64,1.57Z"/>
      <path class="cls-1" d="m51.89,9.52c.01.89-.7,1.62-1.57,1.61-.82,0-1.52-.69-1.55-1.52-.03-.89.65-1.64,1.52-1.67.86-.03,1.6.7,1.61,1.58Z"/>
      <path class="cls-1" d="m45.42,11.12c-.83.01-1.54-.69-1.56-1.54-.02-.88.71-1.65,1.58-1.64.82,0,1.54.72,1.57,1.55.03.88-.69,1.62-1.58,1.63Z"/>
      <path class="cls-1" d="m29.12,9.37c.84.02,1.5.73,1.49,1.59,0,.92-.71,1.61-1.61,1.57-.87-.03-1.5-.7-1.5-1.58,0-.89.74-1.61,1.62-1.59Z"/>
    </g>
  </g>
</svg>