<?xml version="1.0" encoding="UTF-8"?>
<svg id="Vrstva_2" data-name="Vrstva 2" xmlns="http://www.w3.org/2000/svg" viewBox="0 0 570.54 61.31">
  <defs>
    <style>
      .cls-1 {
        fill: #74c7d3;
        stroke-width: 0px;
      }
    </style>
  </defs>
  <g id="Vrstva_3" data-name="Vrstva 3">
    <g>
      <g>
        <path class="cls-1" d="m363.37,7.49c2.43.05,4.81.57,6.98,1.84.53.31.87.24,1.37-.07,4.55-2.82,9.31-3.06,14.2-.97.75.32,1.22.26,1.86-.22,5.11-3.79,13.06-3.35,17.73.94,3.18,2.92,3.7,7.14,1.38,10.78-.25.39-.32,1.04-.19,1.48.56,1.86,1.26,3.68,1.83,5.54.14.46-.02,1.01-.05,1.52-.53-.1-1.15-.05-1.59-.31-1.79-1.08-3.51-2.27-5.3-3.36-.42-.25-1.04-.41-1.5-.3-3.63.82-7.13.62-10.54-.95-.33-.15-.94-.08-1.26.13-5.07,3.42-10.3,3.6-15.74.95-.37-.18-1.02-.15-1.36.07-3.58,2.28-7.44,2.8-11.51,1.86-.91-.21-1.59-.08-2.34.44-1.66,1.14-3.36,2.23-5.09,3.28-.38.23-.92.18-1.39.25-.05-.5-.25-1.05-.11-1.5.58-1.89,1.29-3.75,1.88-5.64.12-.39.08-.96-.12-1.3-2.68-4.48-1.73-8.98,2.6-12,2.46-1.72,5.23-2.43,8.27-2.45Zm-10.23,19.69c.08.06.16.12.25.18,1.23-.79,2.49-1.53,3.67-2.38.79-.57,1.53-.64,2.46-.38,3.59.99,7.06.68,10.31-1.22,4.92-2.87,5.27-8.41.77-11.87-3.84-2.96-10.5-3.03-14.52-.17-3.36,2.38-4.73,6.43-1.79,10.11.29.37.35,1.1.22,1.59-.37,1.4-.9,2.76-1.36,4.14Zm52.77-1.82c.08-.06.17-.12.25-.19-.45-1.34-.88-2.69-1.38-4.02-.26-.69-.21-1.21.24-1.83,2.5-3.39,1.96-7.07-1.35-9.65-4.21-3.27-11.01-3.28-15.21-.02-3.95,3.06-3.88,8.17.16,11.09,3.5,2.54,7.35,2.91,11.41,1.77.75-.21,1.32-.14,1.95.29,1.29.88,2.62,1.7,3.94,2.55Zm-18.75-3.26c-.78-.99-1.5-1.9-2.24-2.81-.45-.55-1.02-1.03-1.34-1.64-.29-.55-.58-1.33-.41-1.86.62-1.95,1.43-3.85,2.18-5.78-3.1-2.12-10.13-1.69-12.65.85.56.76,1.13,1.51,1.68,2.28.54.76,1.15,1.5,1.55,2.33.24.5.35,1.24.15,1.73-.78,1.94-1.69,3.82-2.57,5.73,3.36,2.47,10.56,2.06,13.64-.82Z"/>
        <path class="cls-1" d="m370.07,49.82c2.06-3.72,5.07-5.85,9.25-5.87,4.2-.02,7.21,2.09,9.31,5.84.32-.48.58-.86.82-1.24,2.36-3.6,6.72-5.36,10.83-4.35,4.27,1.05,7.38,4.62,7.78,8.95.02.25.12.56.01.76-.2.37-.52.66-.79.99-.29-.31-.73-.57-.84-.93-.3-.97-.32-2.04-.69-2.98-1.4-3.64-5.24-5.84-8.98-5.25-3.98.63-6.93,3.79-7.24,7.74-.03.36-.02.78-.2,1.05-.14.21-.7.42-.81.33-.32-.27-.68-.69-.71-1.07-.15-1.93-.79-3.63-2.02-5.13-2.13-2.59-5.66-3.64-8.96-2.62-3.2.98-5.61,3.99-5.86,7.29-.03.33.04.71-.11.97-.16.27-.52.58-.8.58-.27,0-.63-.32-.78-.6-.15-.26-.09-.64-.12-.97-.44-4.34-4.05-7.65-8.37-7.67-4.32-.02-7.94,3.28-8.41,7.62-.07.67.13,1.71-.99,1.59-1.06-.11-.78-1.09-.71-1.77.4-4.32,3.56-7.91,7.82-8.9,4.21-.99,8.67.9,10.93,4.61.18.3.37.6.64,1.03Z"/>
        <path class="cls-1" d="m384.22,38.28c-.02,2.65-2.2,4.83-4.85,4.83-2.7,0-4.9-2.21-4.88-4.91.02-2.69,2.26-4.87,4.96-4.82,2.64.04,4.78,2.24,4.76,4.91Zm-4.83-3.17c-1.75-.01-3.15,1.39-3.15,3.13,0,1.7,1.37,3.1,3.04,3.13,1.74.03,3.19-1.36,3.2-3.08.01-1.77-1.36-3.17-3.1-3.18Z"/>
        <path class="cls-1" d="m397.96,33.38c2.7,0,4.88,2.2,4.86,4.92-.02,2.63-2.21,4.78-4.88,4.81-2.66.02-4.89-2.23-4.87-4.93.02-2.63,2.22-4.79,4.88-4.8Zm.01,8c1.73-.03,3.14-1.46,3.12-3.19-.02-1.72-1.47-3.11-3.22-3.08-1.68.03-3.06,1.44-3.06,3.13,0,1.73,1.44,3.16,3.15,3.14Z"/>
        <path class="cls-1" d="m365.64,38.22c.03,2.63-2.13,4.84-4.79,4.89-2.69.05-4.91-2.13-4.94-4.85-.02-2.65,2.13-4.85,4.78-4.89,2.7-.04,4.91,2.13,4.94,4.85Zm-1.73-.01c-.01-1.73-1.45-3.12-3.2-3.1-1.66.02-3.06,1.43-3.09,3.11-.02,1.7,1.45,3.18,3.15,3.16,1.75-.02,3.15-1.43,3.14-3.17Z"/>
        <path class="cls-1" d="m358.42,18.6c-.88.02-1.63-.72-1.61-1.59.01-.84.71-1.53,1.55-1.55.84-.02,1.56.66,1.6,1.5.04.91-.63,1.63-1.54,1.65Z"/>
        <path class="cls-1" d="m368.14,18.61c-.86,0-1.57-.77-1.55-1.64.02-.82.72-1.49,1.57-1.51.86-.02,1.61.72,1.61,1.59,0,.85-.75,1.58-1.63,1.57Z"/>
        <path class="cls-1" d="m363.2,15.45c.9-.03,1.64.67,1.64,1.56,0,.9-.59,1.53-1.49,1.58-.92.04-1.63-.62-1.65-1.54-.02-.83.67-1.57,1.5-1.59Z"/>
        <path class="cls-1" d="m392.71,14.99c.02.87-.7,1.61-1.59,1.61-.83,0-1.54-.67-1.59-1.5-.04-.86.68-1.65,1.53-1.68.86-.03,1.62.7,1.64,1.57Z"/>
        <path class="cls-1" d="m402.48,15c.01.89-.7,1.62-1.57,1.61-.82,0-1.52-.69-1.55-1.52-.03-.89.65-1.64,1.52-1.67.86-.03,1.6.7,1.61,1.58Z"/>
        <path class="cls-1" d="m396.01,16.61c-.83.01-1.54-.69-1.56-1.54-.02-.88.71-1.65,1.58-1.64.82,0,1.54.72,1.57,1.55.03.88-.69,1.62-1.58,1.63Z"/>
        <path class="cls-1" d="m379.72,14.85c.84.02,1.5.73,1.49,1.59,0,.92-.71,1.61-1.61,1.57-.87-.03-1.5-.7-1.5-1.58,0-.89.74-1.61,1.62-1.59Z"/>
      </g>
      <g>
        <path class="cls-1" d="m68.64,46.12c0-.49,0-.93,0-1.36,0-11.12,0-22.24,0-33.36,0-1.95.03-1.97,1.96-1.97,17.72,0,35.45,0,53.17,0,1.62,0,1.73.12,1.73,1.77,0,11.23.02,22.46.02,33.69,0,.75-.09,1.43,1,1.58.33.04.8.73.82,1.14.08,1.27.12,2.58-.09,3.83-.36,2.2-2.2,3.67-4.42,3.71-1.87.04-3.74.01-5.61.01-15.01,0-30.02,0-45.03,0-3.69,0-5.43-1.77-5.43-5.49,0-.4,0-.81,0-1.21.01-1.65.18-1.88,1.87-2.33Zm28.4.14c8.44,0,16.88,0,25.32,0q1.42,0,1.42-1.46c0-10.75,0-21.5,0-32.26q0-1.43-1.45-1.43c-16.88,0-33.76,0-50.64-.03-1.1,0-1.33.36-1.33,1.38.03,10.83.03,21.65,0,32.48,0,1.08.32,1.35,1.37,1.34,8.44-.04,16.88-.02,25.32-.02Zm.07,7.18c8.19,0,16.37,0,24.56,0,.51,0,1.03,0,1.54-.08,1.32-.2,2.33-1.27,2.44-2.6.05-.62,0-1.25.04-1.87.04-.66-.21-.91-.89-.9-5.47.02-10.94.03-16.41.01-.7,0-.95.23-1.01.94-.18,2.19-1.56,3.46-3.77,3.48-4.33.03-8.66.03-13,0-2.19-.01-3.62-1.26-3.83-3.44-.08-.88-.46-.99-1.18-.98-2.42.03-4.85.01-7.27,0-2.94,0-5.87-.02-8.81.01-.35,0-.95.24-1.02.49-.83,2.79.82,4.93,3.72,4.93,8.3,0,16.59,0,24.89,0Zm.02-5.42c-2.45,0-4.91-.01-7.36.01-.41,0-1.15.14-1.16.28-.05.51-.03,1.19.28,1.52.4.43,1.09.82,1.66.83,4.36.07,8.72.06,13.08,0,.55,0,1.23-.34,1.61-.74.32-.34.41-1.01.36-1.52-.01-.16-.79-.35-1.21-.36-2.42-.03-4.84-.02-7.25-.01Z"/>
        <path class="cls-1" d="m97.11,13.26c7.6,0,15.19,0,22.79,0,1.39,0,1.59.19,1.59,1.59,0,9.21,0,18.42,0,27.64,0,1.48-.17,1.64-1.65,1.65-15.23,0-30.46,0-45.69,0-1.24,0-1.48-.22-1.48-1.48,0-9.29,0-18.57,0-27.86,0-1.34.21-1.53,1.53-1.53,7.63,0,15.27,0,22.9,0h0Zm.06,1.72c-7.15,0-14.31.01-21.46-.02-.95,0-1.35.19-1.34,1.27.05,8.29.04,16.58,0,24.87,0,1.08.35,1.34,1.39,1.34,14.23-.03,28.47-.03,42.7,0,.98,0,1.32-.23,1.32-1.28-.04-8.29-.04-16.58,0-24.87,0-1.07-.33-1.34-1.37-1.34-7.08.04-14.16.02-21.24.03Z"/>
        <path class="cls-1" d="m100.49,39.28c0-1.17,0-2.22,0-3.27,0-.61.05-1.28.86-1.27.79,0,.86.67.87,1.28.02.84.03,1.69.01,2.53-.02.91.64.72,1.16.72.52,0,1.17.17,1.16-.73-.02-2.02.07-4.04-.06-6.05-.12-1.81-1.19-3.03-2.94-3.6-.17-.06-.41-.04-.52-.15-.32-.32-.85-.72-.83-1.05.06-.68.68-.72,1.28-.61,2.57.45,4.68,2.78,4.77,5.47.08,2.42,0,4.84.03,7.27,0,1.02-.59,1.21-1.43,1.21-4.33,0-8.66,0-12.99,0-.88,0-1.76-.02-2.64,0-.86.02-1.3-.33-1.29-1.23.02-2.42-.04-4.85.03-7.27.08-2.67,2.07-4.91,4.66-5.42.63-.12,1.24-.16,1.4.62.15.72-.41.91-.98,1.07-2.26.62-3.39,2.05-3.42,4.38-.02,1.72.04,3.45-.02,5.17-.03.95.5.96,1.19.95.66,0,1.27.04,1.19-.94-.06-.73-.01-1.47,0-2.2,0-.63-.04-1.39.83-1.4.94,0,.89.79.9,1.46,0,.77-.04,1.55.03,2.31.03.27.31.57.56.73.18.12.5.03.76.03,1.75,0,3.51,0,5.45,0Z"/>
        <path class="cls-1" d="m97.13,25.88c-2.48.02-4.51-1.96-4.53-4.42-.02-2.5,1.92-4.51,4.4-4.56,2.53-.04,4.61,1.98,4.59,4.48-.02,2.5-1.98,4.48-4.46,4.5Zm-2.8-4.5c-.02,1.52,1.27,2.81,2.8,2.79,1.46-.02,2.73-1.3,2.73-2.76,0-1.48-1.22-2.74-2.7-2.79-1.52-.05-2.81,1.21-2.83,2.76Z"/>
      </g>
      <g>
        <path class="cls-1" d="m196.79,41.81c0,2.63-.02,5.27.04,7.9,0,.25.51.67.8.69,1.32.08,2.64.02,3.96.04,1.67.02,2.57.86,2.58,2.34,0,1.47-.9,2.36-2.55,2.36-8.51.02-17.03.02-25.54.01-1.65,0-2.57-.87-2.58-2.35-.01-1.47.9-2.32,2.56-2.36,1.32-.03,2.64-.03,3.96,0,.6,0,.86-.21.86-.83-.02-3.89.03-7.78-.06-11.67-.02-.68-.49-1.47-.99-1.99-3.86-4.07-7.78-8.09-11.68-12.13-.31-.32-.61-.64-.87-.99-1.1-1.47-.96-3.11.34-4.23,1.23-1.05,2.95-.99,4.18.24,2.28,2.29,4.55,4.58,6.78,6.92,3.42,3.6,3.4,3.62,8.38,3.62,1.94,0,3.89,0,5.83,0,2.35,0,4.2.99,5.48,2.94,2.48,3.77,4.92,7.56,7.35,11.37,1.04,1.63.66,3.54-.8,4.47-1.55.99-3.4.54-4.47-1.13-1.12-1.75-2.2-3.53-3.3-5.3-.09.03-.17.06-.26.09Zm-14.17,1.8c0,1.91.04,3.82-.02,5.72-.03.9.3,1.12,1.15,1.11,3.26-.04,6.53-.01,9.8-.02,1.52,0,1.53,0,1.53-1.58,0-3.38-.02-6.75.03-10.13,0-.44.36-.87.55-1.3.43.26.96.44,1.25.8.53.65.91,1.42,1.35,2.14,1.19,1.94,2.38,3.88,3.59,5.8.48.76,1.2.99,1.99.52.78-.47.76-1.2.41-1.93-.17-.36-.42-.69-.64-1.03-2.15-3.33-4.32-6.64-6.44-9.99-1.12-1.77-2.63-2.67-4.74-2.64-2.64.04-5.28-.02-7.92.02-2.15.03-3.91-.75-5.39-2.3-2.61-2.73-5.27-5.42-7.91-8.12-1.12-1.15-1.83-1.35-2.5-.71-.67.64-.49,1.4.6,2.53,3.95,4.09,7.89,8.19,11.85,12.26.98,1,1.48,2.14,1.45,3.55-.04,1.76,0,3.52,0,5.28Zm6.34,8.55h0c-4.22,0-8.44,0-12.66.04-.35,0-.69.41-1.03.64.34.19.67.4,1.02.57.12.06.29.01.44.01,8.11,0,16.22,0,24.33,0,.29,0,.62.05.87-.06.22-.1.44-.38.47-.61.02-.16-.25-.45-.45-.51-.3-.1-.65-.06-.98-.06-4,0-8,0-12,0Z"/>
        <path class="cls-1" d="m207.27,29.48c-3.61.03-3.62.03-3.6-3.54,0-.72.18-1.44.26-2.16.15-1.4-.57-2.46-1.43-3.44-1.54-1.77-2.2-3.78-1.68-6.11.62-2.77,2.81-4.78,5.61-5.19,2.67-.39,5.38.97,6.75,3.39,1.35,2.38,1.09,5.33-.67,7.52-.43.54-.89,1.08-1.23,1.67-.48.84-.6,1.69-.4,2.73.25,1.23.14,2.55.08,3.83-.03.8-.61,1.24-1.4,1.28-.77.04-1.54,0-2.31,0Zm.09-6.26c.54-.21,1.3.45,1.74-.58.54-1.29,1.21-2.58,2.07-3.68,1.88-2.43,1.37-5.92-1.22-7.49-2.02-1.22-4.55-.89-6.15.8-1.71,1.81-1.86,4.33-.45,6.35.73,1.04,1.6,2.07,2,3.24.38,1.13.82,1.64,2.01,1.36Zm-.04,4.54c2.02,0,2,0,1.97-1.96,0-.55-.16-.82-.74-.8-.8.03-1.61-.02-2.41.03-.24.01-.59.18-.67.37-.59,1.4.05,2.36,1.52,2.36.11,0,.22,0,.33,0Z"/>
        <path class="cls-1" d="m194.93,22.22c-.03,3.37-2.75,6.08-6.11,6.09-3.32,0-6.07-2.78-6.07-6.13,0-3.33,2.78-6.09,6.12-6.08,3.34.01,6.09,2.79,6.06,6.13Zm-1.74,0c0-2.42-1.91-4.38-4.29-4.41-2.44-.03-4.41,1.94-4.4,4.4,0,2.4,1.94,4.33,4.34,4.34,2.39.01,4.34-1.93,4.35-4.34Z"/>
        <path class="cls-1" d="m197.22,16.43c-.55,0-1.12.09-1.64-.03-.31-.07-.79-.52-.76-.72.06-.34.45-.86.74-.88,1.12-.1,2.27-.08,3.39,0,.27.02.68.51.69.78,0,.28-.39.73-.68.8-.55.13-1.16.04-1.74.04,0,0,0,0,0,0Z"/>
        <path class="cls-1" d="m217.38,16.44c-.51,0-1.05.1-1.52-.03-.34-.1-.59-.52-.87-.8.28-.29.53-.79.83-.82,1.05-.1,2.12-.12,3.17,0,.34.03.62.55.94.85-.3.27-.56.69-.9.78-.51.13-1.09.03-1.64.03,0,0,0,0,0,0Z"/>
        <path class="cls-1" d="m204.15,8.23c-.33.35-.52.72-.76.76-.3.05-.8-.06-.94-.28-.63-.94-1.2-1.93-1.7-2.94-.12-.24.04-.74.24-.96.16-.17.77-.22.86-.09.8,1.12,1.52,2.29,2.3,3.51Z"/>
        <path class="cls-1" d="m211.37,9.23c-.19-.39-.64-.9-.53-1.15.5-1.12,1.14-2.19,1.81-3.22.12-.19.69-.25.96-.14.22.09.5.62.42.77-.62,1.18-1.32,2.32-2.01,3.47-.06.1-.26.11-.64.27Z"/>
        <path class="cls-1" d="m199.91,12.33c-1.16-.72-2.29-1.39-3.36-2.14-.16-.11-.18-.7-.04-.88.18-.23.69-.46.9-.35,1.08.53,2.13,1.14,3.13,1.8.2.13.26.68.18.97-.07.23-.46.37-.8.61Z"/>
        <path class="cls-1" d="m218.33,9.9c-.13.15-.31.48-.59.66-.8.51-1.6,1.04-2.47,1.4-.35.14-.88-.13-1.32-.22.15-.4.18-.97.47-1.18.79-.58,1.67-1.05,2.54-1.5.71-.36,1.35-.02,1.38.84Z"/>
        <path class="cls-1" d="m208.16,5.42c0,.58.09,1.18-.03,1.74-.06.3-.53.75-.73.71-.32-.07-.8-.46-.82-.75-.09-1.08-.09-2.19,0-3.27.03-.3.52-.56.79-.84.26.29.67.54.76.88.13.47.03,1.01.03,1.52,0,0,0,0,0,0Z"/>
      </g>
      <g>
        <path class="cls-1" d="m299.84,58.15c-1.62,0-3.23.05-4.85-.01-3.36-.13-6.4.74-9.09,2.75-.74.55-1.34.55-2.07,0-2.72-2.04-5.8-2.85-9.2-2.76-3.52.09-7.05.02-10.57.02-1.43,0-1.58-.16-1.59-1.58,0-1.25-.02-2.5,0-3.74.01-.58-.12-.9-.74-1.13-1.76-.65-2.75-2-2.68-3.64.08-1.79.97-3.07,2.7-3.63.65-.21.72-.6.72-1.16-.01-2.39,0-4.77,0-7.16,0-1.4.16-1.56,1.6-1.58,1.32-.02,2.64-.02,3.96.01.63.01.92-.16.94-.86.18-5.1,3.9-10.42,12-10.19.38.01,1,.45,1.07.78.15.69-.46.88-1.07.92-.99.07-1.98.1-2.96.26-3.85.62-6.82,3.74-7.24,7.55-.16,1.44-.09,1.51,1.32,1.51,1.06,0,2.13.02,3.19,0,3.22-.06,6.17.79,8.84,2.58.47.32.84.45,1.37.08,2.84-2,6.03-2.76,9.47-2.67,1.5.04,3.01-.05,4.51.03,1.04.05,1.22-.37,1.14-1.29-.34-3.86-3.34-7.12-7.27-7.78-.9-.15-1.84-.09-2.73-.29-.38-.09-.67-.58-1-.9.34-.26.68-.74,1.02-.75,7.16-.2,11.31,4.43,11.68,9.9.06.96.43,1.18,1.28,1.13.99-.06,1.98-.02,2.97,0,1.34.02,1.49.18,1.5,1.56.01,2.35.03,4.7,0,7.05-.01.72.18,1.11.91,1.37,1.58.56,2.46,1.92,2.47,3.55,0,1.61-.89,2.99-2.47,3.55-.73.26-.95.63-.91,1.36.06,1.25,0,2.5.02,3.74.02,1-.37,1.47-1.44,1.45-2.28-.05-4.55-.01-6.83-.01h0Zm-14,.57c.32-.14.52-.21.7-.31,2.52-1.44,5.23-2.03,8.13-1.99,3.52.05,7.04,0,10.57.03.85,0,1.15-.24,1.14-1.12-.03-5.98-.03-11.96,0-17.94,0-.83-.2-1.16-1.1-1.15-3.89.05-7.78.02-11.67.06-2.53.02-4.81.85-6.94,2.19-.67.42-.91.91-.91,1.7.03,5.8,0,11.59,0,17.39,0,.35.05.7.08,1.16Zm-1.99.11c.07-.47.13-.65.13-.83,0-6.05.03-12.1-.02-18.15,0-.41-.36-.95-.72-1.21-1.82-1.31-3.86-2.19-6.11-2.26-4.03-.12-8.06-.09-12.1-.13-.62,0-.86.25-.86.85,0,6.16,0,12.32,0,18.48,0,.59.22.9.84.86.22-.02.44,0,.66,0,1.58,0,3.15,0,4.73,0,4.56.03,9.22-.54,13.44,2.4Zm-21.48-8.85v-3.9c-1.08.35-1.56,1.04-1.55,1.97,0,.91.4,1.67,1.55,1.93Zm45.87-3.87v3.87c1.09-.31,1.5-1.02,1.5-1.93,0-.9-.41-1.61-1.5-1.95Z"/>
        <path class="cls-1" d="m293.44,12.25c-.02,4.3-3.51,7.76-7.79,7.74-4.32-.02-7.8-3.57-7.75-7.91.05-4.28,3.58-7.73,7.87-7.67,4.31.05,7.7,3.52,7.68,7.85Zm-13.82,0c.02,3.3,2.76,6.01,6.06,6,3.35-.01,6.11-2.8,6.07-6.12-.04-3.29-2.79-5.99-6.09-6-3.36,0-6.07,2.74-6.05,6.13Z"/>
        <path class="cls-1" d="m272.99,42.15c-1.43,0-2.86,0-4.29,0-.61,0-1.27-.02-1.3-.83-.03-.8.6-.9,1.23-.9,2.97,0,5.95,0,8.92,0,.61,0,1.17.13,1.19.84.03.8-.59.9-1.23.9-1.5,0-3.01,0-4.51,0Z"/>
        <path class="cls-1" d="m272.98,47.31c-1.47,0-2.94,0-4.4,0-.6,0-1.17-.12-1.19-.83-.02-.81.61-.87,1.24-.87,2.94,0,5.87,0,8.81,0,.62,0,1.29.03,1.3.82.01.86-.7.89-1.35.89-1.47,0-2.94,0-4.4,0,0,0,0,0,0,0Z"/>
      </g>
      <g>
        <path class="cls-1" d="m459.77,6.12c-1.9,1.98-3.57,3.68-5.17,5.44-.16.17-.04.83.17,1.07.72.83,1.52,1.59,2.31,2.35.71.68.77,1.39.35,2.28-.69,1.49-1.33,3.02-1.88,4.57-.34.95-.9,1.36-1.87,1.35-1.1-.02-2.2.02-3.3,0-.66-.02-.93.27-.92.91.02,2.06.03,4.11,0,6.17,0,.74.33.95,1.01.93,1.1-.03,2.2.02,3.3-.01.96-.02,1.46.46,1.78,1.32.59,1.57,1.23,3.14,1.92,4.67.37.82.29,1.48-.33,2.1-.78.78-1.53,1.59-2.34,2.33-.55.51-.61.93-.02,1.44.38.34.8.69,1.04,1.12.16.28.17.92,0,1.04-.27.2-.9.27-1.13.09-.68-.54-1.33-1.17-1.83-1.88-.6-.84-.46-1.76.25-2.52.72-.78,1.47-1.54,2.25-2.26.45-.42.51-.77.24-1.33-.56-1.15-1.07-2.34-1.49-3.55-.24-.69-.6-.9-1.28-.87-.92.05-1.83.03-2.75,0-1.53-.03-2.32-.8-2.34-2.31-.02-2.28-.03-4.55,0-6.83.02-1.5.75-2.22,2.24-2.26.99-.03,1.98-.04,2.97,0,.61.03.91-.2,1.13-.78.47-1.27,1.06-2.5,1.52-3.77.11-.32.04-.85-.17-1.1-.66-.78-1.44-1.46-2.14-2.21-1.03-1.1-1.03-2.22.03-3.3,1.54-1.57,3.1-3.13,4.68-4.66,1.23-1.2,2.28-1.18,3.53.05.47.46,1.01.87,1.4,1.4.71.98,1.44,1.09,2.49.47.84-.5,1.8-.82,2.74-1.12.75-.23,1.09-.6,1.04-1.41-.06-.95-.04-1.91,0-2.86.07-1.42.8-2.15,2.24-2.17,2.35-.03,4.7-.03,7.05.01,1.3.02,2.03.78,2.09,2.07.04,1.03.04,2.06,0,3.08-.02.65.2.97.85,1.19,1.18.4,2.34.86,3.45,1.43.7.36,1.12.24,1.61-.3.61-.68,1.27-1.32,1.94-1.95,1.07-1,2.18-1.03,3.21-.03,1.69,1.63,3.35,3.3,4.98,4.98.9.93.9,1.97.02,2.95-.73.82-1.58,1.54-2.29,2.38-.21.25-.28.79-.16,1.11.46,1.27,1.06,2.5,1.52,3.77.21.6.52.79,1.12.77.99-.03,1.98-.02,2.97,0,1.41.03,2.22.76,2.25,2.16.04,2.35.03,4.7-.01,7.05-.02,1.34-.79,2.11-2.14,2.18-1.02.05-2.06.04-3.08.01-.6-.02-.91.18-1.13.78-.43,1.21-.91,2.4-1.48,3.55-.32.65-.22,1.06.3,1.52.73.66,1.43,1.38,2.1,2.11.89.96.9,1.98.05,2.96-.43.5-.88,1.02-1.42,1.37-.31.21-.83.11-1.26.15,0-.43-.12-.94.06-1.27.36-.68,1.32-1.31,1.26-1.87-.07-.64-.96-1.21-1.54-1.77-2.49-2.39-1.87-2.21-.78-4.56.49-1.06.89-2.17,1.24-3.29.3-.93.83-1.41,1.83-1.38,1.1.03,2.2-.03,3.3.02.73.03.97-.28.96-.97-.02-2.02-.04-4.04,0-6.06.02-.8-.32-1.02-1.05-.99-1.1.04-2.2,0-3.3,0-.9,0-1.39-.44-1.71-1.26-.6-1.57-1.21-3.14-1.92-4.67-.42-.91-.32-1.6.38-2.28.77-.74,1.48-1.53,2.27-2.25.59-.53.53-.92-.01-1.44-1.45-1.4-2.87-2.83-4.28-4.28-.45-.46-.79-.52-1.26-.02-.8.86-1.67,1.65-2.49,2.49-.6.62-1.24.65-2,.32-1.61-.7-3.24-1.37-4.87-2.01-.73-.29-1.14-.77-1.15-1.56,0-1.14-.03-2.28,0-3.41.01-.72-.23-1.09-1.01-1.08-2.02.03-4.04.02-6.06,0-.71,0-.98.28-.95.99.04,1.1,0,2.2.02,3.3.02.94-.4,1.47-1.29,1.8-1.54.57-3.08,1.17-4.57,1.89-.95.46-1.67.37-2.36-.39-.88-.98-1.78-1.94-2.91-3.18Z"/>
        <path class="cls-1" d="m474.82,55.17c-5.1,0-10.2,0-15.31,0-1.22,0-1.43-.24-1.39-1.41.23-6.95,4.78-13.09,11.33-15.31.24-.08.51-.25.73-.2.44.1.85.32,1.27.49-.26.37-.44.9-.8,1.09-.93.5-1.99.76-2.92,1.27-4.44,2.45-6.97,6.26-7.81,11.24-.16.92.18,1.14,1.04,1.13,6.35-.03,12.7-.01,19.05-.01,2.79,0,5.58,0,8.37,0,1.59,0,1.65-.03,1.34-1.62-1.14-5.76-4.47-9.68-9.97-11.76-.67-.25-1.8-.3-1.36-1.4.4-1.01,1.33-.44,2.01-.19,6.63,2.47,11.02,8.39,11.21,15.05.04,1.5-.1,1.65-1.6,1.65-5.07,0-10.13,0-15.2,0h0Z"/>
        <path class="cls-1" d="m457.54,27.92c-.23-8.35,5.31-15.6,13.03-17.58,7.75-1.99,16.09,1.72,19.67,8.77.48.94.85,1.95,1.23,2.94.23.61.35,1.31-.48,1.54-.78.22-.99-.44-1.17-1.01-1.5-4.7-4.55-8.01-9.08-9.88-6.45-2.66-13.79-.69-18.07,4.71-4.36,5.5-4.55,13.07-.47,18.87.08.12.17.24.26.35.39.5.69,1.06.03,1.51-.66.45-1.07-.05-1.45-.54-2.28-3.03-3.43-6.45-3.5-9.7Z"/>
        <path class="cls-1" d="m482.16,29.02c-.01,4.01-3.27,7.26-7.3,7.27-3.97.02-7.28-3.29-7.29-7.3-.01-4,3.26-7.31,7.26-7.33,4.05-.03,7.34,3.27,7.33,7.36Zm-7.33,5.53c3.06.02,5.63-2.5,5.65-5.54.02-3.05-2.52-5.58-5.61-5.59-3.03,0-5.56,2.48-5.58,5.48-.02,3.1,2.44,5.62,5.53,5.65Z"/>
        <path class="cls-1" d="m490.47,26.92c0-.44-.09-.9.03-1.3.09-.32.45-.79.67-.78.33.02.89.37.92.63.12.97.12,1.96.03,2.94-.02.28-.55.76-.75.71-.33-.07-.72-.45-.83-.78-.14-.43-.03-.94-.03-1.41,0,0-.02,0-.03,0Z"/>
        <path class="cls-1" d="m491.85,31.12c-.39,1.07-.67,2.02-1.11,2.9-.13.26-.8.5-1.05.38-.26-.12-.49-.73-.42-1.05.18-.85.47-1.7.85-2.48.14-.29.68-.55,1.01-.53.26.02.48.51.71.78Z"/>
        <path class="cls-1" d="m489.74,36.26c-.61.71-1.14,1.39-1.75,1.98-.12.12-.68-.02-.85-.2-.18-.19-.26-.66-.15-.88.31-.57.7-1.12,1.15-1.58.17-.18.63-.23.88-.14.25.09.4.44.71.82Z"/>
      </g>
      <path class="cls-1" d="m569.73,55.17h-262.07v-1.62h262.07c.45,0,.81.36.81.81h0c0,.45-.36.81-.81.81Z"/>
      <path class="cls-1" d="m262.74,55.17H.81c-.45,0-.81-.36-.81-.81h0c0-.45.36-.81.81-.81h261.93v1.62Z"/>
    </g>
  </g>
</svg>