<?xml version="1.0" encoding="UTF-8"?>
<svg id="Vrstva_2" data-name="Vrstva 2" xmlns="http://www.w3.org/2000/svg" viewBox="0 0 60.65 45.73">
  <defs>
    <style>
      .cls-1 {
        fill: #333;
        stroke-width: 0px;
      }
    </style>
  </defs>
  <g id="Vrstva_3" data-name="Vrstva 3">
    <g>
      <path class="cls-1" d="m1.87,36.7c0-.49,0-.93,0-1.36,0-11.12,0-22.24,0-33.36C1.87.03,1.9,0,3.84,0,21.56,0,39.29,0,57.01,0c1.62,0,1.73.12,1.73,1.77,0,11.23.02,22.46.02,33.69,0,.75-.09,1.43,1,1.58.33.04.8.73.82,1.14.08,1.27.12,2.58-.09,3.83-.36,2.2-2.2,3.67-4.42,3.71-1.87.04-3.74.01-5.61.01-15.01,0-30.02,0-45.03,0C1.74,45.72,0,43.96,0,40.23c0-.4,0-.81,0-1.21.01-1.65.18-1.88,1.87-2.33Zm28.4.14c8.44,0,16.88,0,25.32,0q1.42,0,1.42-1.46c0-10.75,0-21.5,0-32.26q0-1.43-1.45-1.43c-16.88,0-33.76,0-50.64-.03-1.1,0-1.33.36-1.33,1.38.03,10.83.03,21.65,0,32.48,0,1.08.32,1.35,1.37,1.34,8.44-.04,16.88-.02,25.32-.02Zm.07,7.18c8.19,0,16.37,0,24.56,0,.51,0,1.03,0,1.54-.08,1.32-.2,2.33-1.27,2.44-2.6.05-.62,0-1.25.04-1.87.04-.66-.21-.91-.89-.9-5.47.02-10.94.03-16.41.01-.7,0-.95.23-1.01.94-.18,2.19-1.56,3.46-3.77,3.48-4.33.03-8.66.03-13,0-2.19-.01-3.62-1.26-3.83-3.44-.08-.88-.46-.99-1.18-.98-2.42.03-4.85.01-7.27,0-2.94,0-5.87-.02-8.81.01-.35,0-.95.24-1.02.49-.83,2.79.82,4.93,3.72,4.93,8.3,0,16.59,0,24.89,0Zm.02-5.42c-2.45,0-4.91-.01-7.36.01-.41,0-1.15.14-1.16.28-.05.51-.03,1.19.28,1.52.4.43,1.09.82,1.66.83,4.36.07,8.72.06,13.08,0,.55,0,1.23-.34,1.61-.74.32-.34.41-1.01.36-1.52-.01-.16-.79-.35-1.21-.36-2.42-.03-4.84-.02-7.25-.01Z"/>
      <path class="cls-1" d="m30.34,3.84c7.6,0,15.19,0,22.79,0,1.39,0,1.59.19,1.59,1.59,0,9.21,0,18.42,0,27.64,0,1.48-.17,1.64-1.65,1.65-15.23,0-30.46,0-45.69,0-1.24,0-1.48-.22-1.48-1.48,0-9.29,0-18.57,0-27.86,0-1.34.21-1.53,1.53-1.53,7.63,0,15.27,0,22.9,0h0Zm.06,1.72c-7.15,0-14.31.01-21.46-.02-.95,0-1.35.19-1.34,1.27.05,8.29.04,16.58,0,24.87,0,1.08.35,1.34,1.39,1.34,14.23-.03,28.47-.03,42.7,0,.98,0,1.32-.23,1.32-1.28-.04-8.29-.04-16.58,0-24.87,0-1.07-.33-1.34-1.37-1.34-7.08.04-14.16.02-21.24.03Z"/>
      <path class="cls-1" d="m33.72,29.86c0-1.17,0-2.22,0-3.27,0-.61.05-1.28.86-1.27.79,0,.86.67.87,1.28.02.84.03,1.69.01,2.53-.02.91.64.72,1.16.72.52,0,1.17.17,1.16-.73-.02-2.02.07-4.04-.06-6.05-.12-1.81-1.19-3.03-2.94-3.6-.17-.06-.41-.04-.52-.15-.32-.32-.85-.72-.83-1.05.06-.68.68-.72,1.28-.61,2.57.45,4.68,2.78,4.77,5.47.08,2.42,0,4.84.03,7.27,0,1.02-.59,1.21-1.43,1.21-4.33,0-8.66,0-12.99,0-.88,0-1.76-.02-2.64,0-.86.02-1.3-.33-1.29-1.23.02-2.42-.04-4.85.03-7.27.08-2.67,2.07-4.91,4.66-5.42.63-.12,1.24-.16,1.4.62.15.72-.41.91-.98,1.07-2.26.62-3.39,2.05-3.42,4.38-.02,1.72.04,3.45-.02,5.17-.03.95.5.96,1.19.95.66,0,1.27.04,1.19-.94-.06-.73-.01-1.47,0-2.2,0-.63-.04-1.39.83-1.4.94,0,.89.79.9,1.46,0,.77-.04,1.55.03,2.31.03.27.31.57.56.73.18.12.5.03.76.03,1.75,0,3.51,0,5.45,0Z"/>
      <path class="cls-1" d="m30.36,16.47c-2.48.02-4.51-1.96-4.53-4.42-.02-2.5,1.92-4.51,4.4-4.56,2.53-.04,4.61,1.98,4.59,4.48-.02,2.5-1.98,4.48-4.46,4.5Zm-2.8-4.5c-.02,1.52,1.27,2.81,2.8,2.79,1.46-.02,2.73-1.3,2.73-2.76,0-1.48-1.22-2.74-2.7-2.79-1.52-.05-2.81,1.21-2.83,2.76Z"/>
    </g>
  </g>
</svg>