<?xml version="1.0" encoding="UTF-8"?>
<svg id="Vrstva_2" data-name="Vrstva 2" xmlns="http://www.w3.org/2000/svg" viewBox="0 0 168.49 111.66">
  <defs>
    <style>
      .cls-1 {
        fill: #fff;
        stroke-width: 0px;
      }
    </style>
  </defs>
  <g id="Vrstva_3" data-name="Vrstva 3">
    <g>
      <path class="cls-1" d="m0,0v33.93h33.93V0H0Zm26.62,11.27h-6.19v17.11h-6.92V11.27h-6.19v-4.81h19.3v4.81Z"/>
      <g>
        <path class="cls-1" d="m55.15,24.17c.23,0,.65-.03,1.27-.08l.58,3.96c-1.97.92-4.54,1.38-7.69,1.38-2.95,0-5.21-.74-6.79-2.23-1.58-1.49-2.37-3.73-2.37-6.73,0-1.54.2-3.02.6-4.46.4-1.44.85-2.44,1.37-3,.54-.56,1.54-1.05,3-1.46,1.46-.41,2.91-.62,4.35-.62,2.31,0,4.04.41,5.19,1.23,1.15.82,1.91,1.95,2.27,3.4.36,1.45.54,3.39.54,5.83-1.74.1-3.45.15-5.11.15h-5.46c0,.82.17,1.44.52,1.85.35.41.84.67,1.48.79.64.12,1.54.17,2.69.17.64,0,1.83-.06,3.58-.19Zm-8.23-7.65c-.08.59-.13,1.26-.15,2h2c1.2,0,2.08-.01,2.62-.04,0-1.23-.17-2.1-.52-2.61-.35-.51-.94-.77-1.79-.77-.69,0-1.3.14-1.81.42-.15.08-.27.41-.35,1Z"/>
        <path class="cls-1" d="m70.31,28.98l-.62-2.42c-1.18,1.92-2.82,2.88-4.92,2.88-1.72,0-3.12-.48-4.21-1.44-1.09-.96-1.63-2.31-1.63-4.06,0-1.08.31-2.02.94-2.83.63-.81,1.49-1.38,2.6-1.71,1.44-.41,3.65-.64,6.65-.69,0-1.69-.08-2.59-.23-2.69-.13-.1-.54-.15-1.23-.15-.44,0-1.04.03-1.81.08-1.23.05-2.9.19-5,.42-.21-1.38-.36-2.87-.46-4.46,1.36-.28,2.78-.52,4.27-.71,1.49-.19,2.82-.29,4-.29,2.05,0,3.59.34,4.61,1.02,1.02.68,1.69,1.57,2,2.67.31,1.1.45,2.5.42,4.19l-.04,5.65.11,4.54h-5.46Zm-1.19-4.23v-2.85h-.31c-1.9,0-2.95.1-3.15.31-.13.13-.22.32-.29.58-.06.26-.1.5-.1.73,0,.62.14,1.04.42,1.27.28.23.72.35,1.31.35.67,0,1.37-.13,2.11-.38Z"/>
        <path class="cls-1" d="m93.53,28.44c-2.08.69-4.4,1.04-6.96,1.04-2.87,0-5.02-.72-6.44-2.17-1.42-1.45-2.13-3.71-2.13-6.79,0-1.51.2-3.01.61-4.48.41-1.47.85-2.47,1.31-2.98.54-.59,1.6-1.09,3.17-1.5,1.58-.41,3.21-.62,4.9-.62s3.55.15,5.35.46c-.05.64-.14,1.39-.25,2.25-.12.86-.24,1.62-.37,2.29-1.59-.1-3.09-.15-4.5-.15s-2.27.08-2.65.23c-.21.08-.39.6-.56,1.58s-.25,1.88-.25,2.73c0,1.13.16,1.99.48,2.6.32.6.83,1.02,1.52,1.25.69.23,1.63.35,2.81.35.51,0,1.64-.05,3.38-.15l.58,4.08Z"/>
        <path class="cls-1" d="m113.35,14.52c.11,1.13.17,2.85.17,5.15v9.31h-6.58v-10.75c0-.91-.06-1.47-.19-1.67-.08-.1-.26-.18-.56-.23-.3-.05-.64-.08-1.02-.08l-.65.04c-.72.03-1.46.19-2.23.5v12.19h-6.58V5.9l6.58-.27v4.5c0,1.85-.06,3.08-.19,3.69l.04.04c1.74-1.97,3.83-2.96,6.27-2.96.92,0,1.79.13,2.6.38.81.26,1.42.63,1.83,1.11.23.28.4.99.52,2.12Z"/>
        <path class="cls-1" d="m130.87,24.17c.23,0,.65-.03,1.27-.08l.58,3.96c-1.97.92-4.54,1.38-7.69,1.38-2.95,0-5.21-.74-6.79-2.23-1.58-1.49-2.37-3.73-2.37-6.73,0-1.54.2-3.02.6-4.46.4-1.44.85-2.44,1.37-3,.54-.56,1.54-1.05,3-1.46,1.46-.41,2.91-.62,4.35-.62,2.31,0,4.04.41,5.19,1.23,1.15.82,1.91,1.95,2.27,3.4.36,1.45.54,3.39.54,5.83-1.74.1-3.45.15-5.11.15h-5.46c0,.82.17,1.44.52,1.85.35.41.84.67,1.48.79.64.12,1.54.17,2.69.17.64,0,1.83-.06,3.58-.19Zm-8.23-7.65c-.08.59-.13,1.26-.15,2h2c1.2,0,2.08-.01,2.62-.04,0-1.23-.17-2.1-.52-2.61-.35-.51-.94-.77-1.79-.77-.69,0-1.3.14-1.81.42-.15.08-.27.41-.35,1Z"/>
        <path class="cls-1" d="m147.5,11.02c.37.08.65.17.83.27,0,.56-.06,1.49-.19,2.79-.13,1.29-.24,2.21-.35,2.75-.26-.03-.73-.04-1.42-.04-1.62,0-3.05.09-4.31.27v11.92h-6.58V11.29h5.5l.77,2.85h.04c.74-.97,1.54-1.76,2.38-2.35.85-.59,1.6-.88,2.27-.88.33,0,.69.04,1.06.12Z"/>
      </g>
      <g>
        <path class="cls-1" d="m15.56,52.94c-.28.21-.51.79-.67,1.75-.17.96-.25,1.97-.25,3.02,0,1.56.24,2.6.71,3.11.47.51,1.14.77,1.98.77.69,0,1.41-.12,2.15-.35v-8.34c-.74-.1-1.56-.15-2.46-.15-.77,0-1.26.06-1.46.19Z"/>
        <path class="cls-1" d="m0,38.47v33.93h33.93v-33.93H0Zm26.06,27.97h-5.42l-.54-2.96c-.51,1-1.27,1.79-2.27,2.38s-2.13.88-3.38.88c-2,0-3.6-.72-4.79-2.15-1.19-1.44-1.79-3.59-1.79-6.46,0-2.18.26-3.97.77-5.38.51-1.41,1.11-2.42,1.81-3.04.44-.38,1.33-.7,2.67-.96,1.35-.26,2.54-.38,3.6-.38.92,0,1.87.09,2.85.27-.08-1.23-.12-1.91-.12-2.04v-3.23l6.61-.27v23.34Z"/>
      </g>
      <g>
        <path class="cls-1" d="m40.16,48.75h6.58v17.69h-6.58v-17.69Zm1.06-3.08c-.63-.59-.94-1.29-.94-2.11s.31-1.52.94-2.12c.63-.59,1.38-.88,2.25-.88s1.62.29,2.23.88c.62.59.92,1.29.92,2.12s-.31,1.53-.92,2.11c-.61.59-1.36.88-2.23.88s-1.62-.29-2.25-.88Z"/>
        <path class="cls-1" d="m63,48.69c1.31.17,2.83.39,4.58.67v15.3c0,3.67-1.22,6.51-3.65,8.54-.31.26-1,.47-2.08.65-1.08.18-2.29.27-3.65.27-2.95,0-5.28-.38-7-1.15-.03-.56.02-1.31.13-2.23s.24-1.65.37-2.19c1.85.28,3.65.42,5.42.42.9,0,1.66-.04,2.29-.13.63-.09,1.02-.22,1.17-.4.21-.21.36-.97.46-2.31.03-.36.04-.88.04-1.58v-.96c-.64.95-1.46,1.63-2.46,2.04-1,.41-1.9.62-2.69.62-2.15,0-3.78-.71-4.88-2.12-1.1-1.41-1.65-3.47-1.65-6.19,0-1.79.25-3.48.75-5.06.5-1.58,1.19-2.67,2.06-3.29.56-.38,1.48-.67,2.75-.87,1.27-.19,2.7-.29,4.29-.29,1.2,0,2.46.08,3.77.25Zm-2,12.29v-8.04c-.28-.05-.71-.1-1.27-.15-.26-.03-.64-.04-1.15-.04-.79,0-1.29.08-1.5.23-.28.21-.51.78-.67,1.71-.17.94-.25,1.92-.25,2.94,0,1.41.16,2.4.48,2.96.32.56.92.85,1.79.85.95,0,1.81-.15,2.58-.46Z"/>
        <path class="cls-1" d="m70.8,48.75h6.58v17.69h-6.58v-17.69Zm1.06-3.08c-.63-.59-.94-1.29-.94-2.11s.31-1.52.94-2.12c.63-.59,1.38-.88,2.25-.88s1.62.29,2.23.88c.62.59.92,1.29.92,2.12s-.31,1.53-.92,2.11c-.61.59-1.36.88-2.23.88s-1.62-.29-2.25-.88Z"/>
        <path class="cls-1" d="m88.8,59.17c0,.46.01.94.04,1.44.03.5.1.81.23.94.18.18.81.27,1.88.27l1.31-.04c.23,1.23.35,2.65.35,4.27-.49.18-1.2.35-2.13.5-.94.15-1.83.23-2.67.23-1.77,0-3.13-.39-4.1-1.17-.96-.78-1.44-1.99-1.44-3.63v-9.46h-2.88v-3.5l2.88-.27,1.73-4.23,4.81-.27v4.5h4.08v3.77h-4.08v6.65Z"/>
        <path class="cls-1" d="m105.37,66.44l-.62-2.42c-1.18,1.92-2.82,2.88-4.92,2.88-1.72,0-3.12-.48-4.21-1.44-1.09-.96-1.63-2.31-1.63-4.06,0-1.08.31-2.02.94-2.83.63-.81,1.49-1.38,2.6-1.71,1.44-.41,3.65-.64,6.65-.69,0-1.69-.08-2.59-.23-2.69-.13-.1-.54-.15-1.23-.15-.44,0-1.04.03-1.81.08-1.23.05-2.9.19-5,.42-.21-1.38-.36-2.87-.46-4.46,1.36-.28,2.78-.52,4.27-.71,1.49-.19,2.82-.29,4-.29,2.05,0,3.59.34,4.61,1.02,1.02.68,1.69,1.57,2,2.67.31,1.1.45,2.5.42,4.19l-.04,5.65.11,4.54h-5.46Zm-1.19-4.23v-2.85h-.31c-1.9,0-2.95.1-3.15.31-.13.13-.22.32-.29.58-.06.26-.1.5-.1.73,0,.62.14,1.04.42,1.27.28.23.72.35,1.31.35.67,0,1.37-.13,2.11-.38Z"/>
        <path class="cls-1" d="m113.83,43.37l6.58-.27v23.34h-6.58v-23.07Z"/>
      </g>
      <path class="cls-1" d="m0,76.94v33.93h33.93v-33.93H0Zm20.23,22.83h-6.38l-1.15,4.81h-7.08l7.08-21.92h9.04l6.77,21.92h-7.11l-1.15-4.81Zm-3.23-12.38l-2.27,8.11h4.58l-2.15-8.11h-.15Z"/>
      <g>
        <path class="cls-1" d="m53.77,86.23c1.31.17,2.83.39,4.58.67v15.3c0,3.67-1.22,6.51-3.65,8.54-.31.26-1,.47-2.08.65-1.08.18-2.29.27-3.65.27-2.95,0-5.28-.38-7-1.15-.03-.56.02-1.31.13-2.23s.24-1.65.37-2.19c1.85.28,3.65.42,5.42.42.9,0,1.66-.04,2.29-.13.63-.09,1.02-.22,1.17-.4.21-.21.36-.97.46-2.31.03-.36.04-.88.04-1.58v-.96c-.64.95-1.46,1.63-2.46,2.04-1,.41-1.9.62-2.69.62-2.15,0-3.78-.71-4.88-2.12-1.1-1.41-1.65-3.47-1.65-6.19,0-1.79.25-3.48.75-5.06.5-1.58,1.19-2.67,2.06-3.29.56-.38,1.48-.67,2.75-.87,1.27-.19,2.7-.29,4.29-.29,1.2,0,2.46.08,3.77.25Zm-2,12.29v-8.04c-.28-.05-.71-.1-1.27-.15-.26-.03-.64-.04-1.15-.04-.79,0-1.29.08-1.5.23-.28.21-.51.78-.67,1.71-.17.94-.25,1.92-.25,2.94,0,1.41.16,2.4.48,2.96.32.56.92.85,1.79.85.95,0,1.81-.15,2.58-.46Z"/>
        <path class="cls-1" d="m75.76,99.17c.23,0,.65-.03,1.27-.08l.58,3.96c-1.97.92-4.54,1.38-7.69,1.38-2.95,0-5.21-.74-6.79-2.23-1.58-1.49-2.37-3.73-2.37-6.73,0-1.54.2-3.02.6-4.46.4-1.44.85-2.44,1.37-3,.54-.56,1.54-1.05,3-1.46,1.46-.41,2.91-.62,4.35-.62,2.31,0,4.04.41,5.19,1.23,1.15.82,1.91,1.95,2.27,3.4.36,1.45.54,3.39.54,5.83-1.74.1-3.45.15-5.11.15h-5.46c0,.82.17,1.44.52,1.85.35.41.84.67,1.48.79.64.12,1.54.17,2.69.17.64,0,1.83-.06,3.58-.19Zm-8.23-7.65c-.08.59-.13,1.26-.15,2h2c1.2,0,2.08-.01,2.62-.04,0-1.23-.17-2.1-.52-2.61-.35-.51-.94-.77-1.79-.77-.69,0-1.3.14-1.81.42-.15.08-.27.41-.35,1Z"/>
        <path class="cls-1" d="m98.01,89.51c.11,1.13.17,2.85.17,5.15v9.31h-6.58v-10.81c0-.82-.06-1.33-.19-1.54-.21-.26-.68-.38-1.42-.38-.36,0-.63.01-.81.04-.72.03-1.46.19-2.23.5v12.19h-6.58v-17.69h5.34l.73,2.96c1.85-2.23,4.05-3.35,6.61-3.35.92,0,1.79.13,2.6.38.81.26,1.42.63,1.83,1.11.23.28.4.99.52,2.12Z"/>
        <path class="cls-1" d="m116.1,103.43c-2.08.69-4.4,1.04-6.96,1.04-2.87,0-5.02-.72-6.44-2.17-1.42-1.45-2.13-3.71-2.13-6.79,0-1.51.2-3.01.61-4.48.41-1.47.85-2.47,1.31-2.98.54-.59,1.6-1.09,3.17-1.5,1.58-.41,3.21-.62,4.9-.62s3.55.15,5.35.46c-.05.64-.14,1.39-.25,2.25-.12.86-.24,1.62-.37,2.29-1.59-.1-3.09-.15-4.5-.15s-2.27.08-2.65.23c-.21.08-.39.6-.56,1.58s-.25,1.88-.25,2.73c0,1.13.16,1.99.48,2.6.32.6.83,1.02,1.52,1.25.69.23,1.63.35,2.81.35.51,0,1.64-.05,3.38-.15l.58,4.08Z"/>
        <path class="cls-1" d="m136.6,86.28l-4.61,14.8c-.9,2.85-1.71,4.92-2.42,6.21-.72,1.29-1.44,2.2-2.15,2.71-.41.28-1.06.5-1.94.65s-1.84.23-2.87.23c-1.54,0-2.77-.14-3.69-.42-.03-.62,0-1.36.08-2.25.08-.88.18-1.63.31-2.25,1.08.05,2.13.08,3.15.08.77,0,1.35-.01,1.73-.04.38-.74.74-1.53,1.08-2.35l-2.65-.15-5.92-17.23h6.96l3.08,12.38.04.73h.12l2.77-13.11h6.96Z"/>
      </g>
      <path class="cls-1" d="m159.42,77.02l-10.34-10.34-6.27,6.28-9.63-31.25,31.25,9.63-6.27,6.28,10.34,10.34-9.07,9.08Z"/>
    </g>
  </g>
</svg>